<?xml version="1.0" encoding="UTF-8" standalone="no"?>
<svg
   xmlns:dc="http://purl.org/dc/elements/1.1/"
   xmlns:cc="http://creativecommons.org/ns#"
   xmlns:rdf="http://www.w3.org/1999/02/22-rdf-syntax-ns#"
   xmlns:svg="http://www.w3.org/2000/svg"
   xmlns="http://www.w3.org/2000/svg"
   xmlns:sodipodi="http://sodipodi.sourceforge.net/DTD/sodipodi-0.dtd"
   xmlns:inkscape="http://www.inkscape.org/namespaces/inkscape"
   viewBox="0 0 170.96 159.93"
   version="1.1"
   id="svg8"
   sodipodi:docname="flame_bg.svg"
   inkscape:version="0.92.4 (5da689c313, 2019-01-14)">
  <metadata
     id="metadata12">
    <rdf:RDF>
      <cc:Work
         rdf:about="">
        <dc:format>image/svg+xml</dc:format>
        <dc:type
           rdf:resource="http://purl.org/dc/dcmitype/StillImage" />
        <dc:title></dc:title>
      </cc:Work>
    </rdf:RDF>
  </metadata>
  <sodipodi:namedview
     pagecolor="#ffffff"
     bordercolor="#666666"
     borderopacity="1"
     objecttolerance="10"
     gridtolerance="10"
     guidetolerance="10"
     inkscape:pageopacity="0"
     inkscape:pageshadow="2"
     inkscape:window-width="1920"
     inkscape:window-height="1001"
     id="namedview10"
     showgrid="false"
     inkscape:zoom="1.4756457"
     inkscape:cx="85.480003"
     inkscape:cy="52.858218"
     inkscape:window-x="-9"
     inkscape:window-y="-9"
     inkscape:window-maximized="1"
     inkscape:current-layer="svg8" />
  <defs
     id="defs4">
    <style
       id="style2">.cls-1{fill:#09d3ac;}</style>
  </defs>
  <g
     id="g8"
     transform="matrix(0.34545355,0,0,0.34545355,38.666223,7.0963482)"
     style="stroke:#ffffff">
    <path
       d="m 110,0 q 40,30 75,80 35,50 65,115 30,65 15,125 -15,60 -80,95 Q 120,450 60,400 0,350 0,295 0,240 65,135 130,30 110,0"
       stroke-miterlimit="10"
       pointer-events="stroke"
       id="path4"
       inkscape:connector-curvature="0"
       style="fill:none;stroke:#ffffff;stroke-miterlimit:10" />
    <path
       d="m 120,200 q 80,80 90,140 10,60 -35,80 -45,20 -85,0 -40,-20 -35,-55 5,-35 40,-85 35,-50 25,-80"
       stroke-miterlimit="10"
       pointer-events="stroke"
       id="path6"
       inkscape:connector-curvature="0"
       style="fill:none;stroke:#ffffff;stroke-miterlimit:10" />
  </g>
</svg>
