<?xml version="1.0" encoding="UTF-8" standalone="no"?>
<svg
   xmlns:dc="http://purl.org/dc/elements/1.1/"
   xmlns:cc="http://creativecommons.org/ns#"
   xmlns:rdf="http://www.w3.org/1999/02/22-rdf-syntax-ns#"
   xmlns:svg="http://www.w3.org/2000/svg"
   xmlns="http://www.w3.org/2000/svg"
   xmlns:sodipodi="http://sodipodi.sourceforge.net/DTD/sodipodi-0.dtd"
   xmlns:inkscape="http://www.inkscape.org/namespaces/inkscape"
   viewBox="0 0 170.96 159.93"
   version="1.1"
   id="svg8"
   sodipodi:docname="3.svg"
   inkscape:version="0.92.4 (5da689c313, 2019-01-14)">
  <metadata
     id="metadata12">
    <rdf:RDF>
      <cc:Work
         rdf:about="">
        <dc:format>image/svg+xml</dc:format>
        <dc:type
           rdf:resource="http://purl.org/dc/dcmitype/StillImage" />
      </cc:Work>
    </rdf:RDF>
  </metadata>
  <sodipodi:namedview
     pagecolor="#ffffff"
     bordercolor="#666666"
     borderopacity="1"
     objecttolerance="10"
     gridtolerance="10"
     guidetolerance="10"
     inkscape:pageopacity="0"
     inkscape:pageshadow="2"
     inkscape:window-width="1920"
     inkscape:window-height="1001"
     id="namedview10"
     showgrid="false"
     inkscape:zoom="1.4756457"
     inkscape:cx="85.480003"
     inkscape:cy="79.964996"
     inkscape:window-x="-9"
     inkscape:window-y="-9"
     inkscape:window-maximized="1"
     inkscape:current-layer="g8" />
  <defs
     id="defs4">
    <style
       id="style2">.cls-1{fill:#09d3ac;}</style>
  </defs>
  <g
     transform="matrix(0.39984647,0,0,0.39984647,2.9452734,-139.38788)"
     id="g8">
    <path
       style="fill:none;stroke:#ffffff;stroke-width:0.82693577;stroke-miterlimit:10"
       inkscape:connector-curvature="0"
       d="m 182.3969,376.18174 q 33.07744,24.80807 62.02019,66.15486 28.94275,41.34679 53.75082,95.09762 24.80808,53.75082 12.40404,103.36697 -12.40404,49.61615 -66.15486,78.5589 -53.75083,28.94275 -103.36697,-12.40404 -49.616146,-41.34679 -49.616146,-86.82826 0,-45.48146 53.750816,-132.30972 53.75083,-86.82826 37.21211,-111.63633"
       stroke-miterlimit="10"
       pointer-events="stroke"
       id="path4" />
    <path
       style="fill:none;stroke:#ffffff;stroke-width:0.82693577;stroke-miterlimit:10"
       inkscape:connector-curvature="0"
       d="m 190.66626,541.56889 q 66.15487,66.15487 74.42422,115.77101 8.26936,49.61615 -28.94275,66.15487 -37.21211,16.53871 -70.28954,0 -33.07743,-16.53872 -28.94275,-45.48147 4.13468,-28.94275 33.07743,-70.28954 28.94275,-41.34679 20.67339,-66.15487"
       stroke-miterlimit="10"
       pointer-events="stroke"
       id="path6" />
  </g>
</svg>
